<?xml version="1.0" standalone="no"?>
<!DOCTYPE svg PUBLIC "-//W3C//DTD SVG 20010904//EN"
 "http://www.w3.org/TR/2001/REC-SVG-20010904/DTD/svg10.dtd">
<svg version="1.0" xmlns="http://www.w3.org/2000/svg"
 width="547.000000pt" height="431.000000pt" viewBox="0 0 547.000000 431.000000"
 preserveAspectRatio="xMidYMid meet">

<g transform="translate(0.000000,431.000000) scale(0.100000,-0.100000)"
fill="#000000" stroke="none">
<path d="M40 2175 l0 -2135 103 0 c56 -1 482 -1 947 0 465 0 1638 0 2608 0
l1762 0 0 2135 0 2135 -2710 0 -2710 0 0 -2135z m3987 -951 c-3 -3 -12 -4 -19
-1 -8 3 -5 6 6 6 11 1 17 -2 13 -5z m-2612 -24 c3 -5 1 -10 -4 -10 -6 0 -11 5
-11 10 0 6 2 10 4 10 3 0 8 -4 11 -10z m1575 -11 c0 -4 -7 -6 -15 -3 -8 4 -15
10 -15 15 0 4 7 6 15 3 8 -4 15 -10 15 -15z m1355 11 c3 -5 1 -10 -4 -10 -6 0
-11 5 -11 10 0 6 2 10 4 10 3 0 8 -4 11 -10z m-318 -16 c-3 -3 -12 -4 -19 -1
-8 3 -5 6 6 6 11 1 17 -2 13 -5z m93 -10 c0 -8 -4 -12 -10 -9 -5 3 -10 10 -10
16 0 5 5 9 10 9 6 0 10 -7 10 -16z m137 10 c-3 -3 -12 -4 -19 -1 -8 3 -5 6 6
6 11 1 17 -2 13 -5z m-4150 -421 c31 -40 61 -112 67 -158 6 -43 5 -47 -6 -31
-7 10 -30 42 -50 70 -30 40 -38 60 -38 93 0 47 6 52 27 26z m-2 -224 c32 -28
65 -76 65 -94 0 -11 -89 55 -105 77 -17 25 -20 48 -5 48 5 0 25 -14 45 -31z
m2904 -44 c7 3 8 0 5 -9 -8 -22 -17 -20 -33 7 -13 20 -13 21 2 9 9 -8 21 -11
26 -7z m-70 -79 c6 -4 21 0 35 9 22 15 27 15 54 1 16 -8 32 -12 36 -9 3 4 6
-1 6 -9 0 -9 -8 -19 -17 -23 -29 -12 -63 -14 -63 -4 0 5 10 9 22 9 16 0 19 3
11 11 -13 13 -48 8 -48 -8 0 -6 -3 -15 -7 -19 -5 -4 -8 -2 -8 4 0 7 -7 12 -15
12 -8 0 -15 7 -15 15 0 8 -4 15 -10 15 -5 0 -10 10 -9 23 l0 22 9 -21 c5 -12
13 -25 19 -28z m171 20 c0 -2 -7 -6 -15 -10 -8 -3 -15 -1 -15 4 0 6 7 10 15
10 8 0 15 -2 15 -4z m-241 -80 c9 -10 8 -15 -2 -19 -8 -3 -13 3 -13 14 0 23 0
23 15 5z m62 -9 c-1 -12 -15 -9 -19 4 -3 6 1 10 8 8 6 -3 11 -8 11 -12z m39 4
c0 -6 -4 -13 -10 -16 -5 -3 -10 1 -10 9 0 9 5 16 10 16 6 0 10 -4 10 -9z m43
-12 c-3 -14 42 -41 52 -31 3 3 5 16 5 29 0 24 14 31 25 13 3 -5 2 -10 -3 -10
-17 0 -25 -53 -9 -65 7 -5 12 -16 9 -24 -3 -10 0 -12 12 -8 10 4 15 3 11 -3
-11 -17 -25 -11 -35 15 -11 28 -26 31 -56 11 -18 -13 -25 -13 -57 2 -19 9 -38
26 -41 36 -3 13 -2 16 5 9 15 -15 59 8 59 30 0 11 5 17 13 14 6 -2 11 -10 10
-18z m38 8 c-1 -12 -15 -9 -19 4 -3 6 1 10 8 8 6 -3 11 -8 11 -12z m93 -3 c3
-8 2 -12 -4 -9 -6 3 -10 10 -10 16 0 14 7 11 14 -7z m-232 -106 c-8 -8 -9 -4
-5 13 4 13 8 18 11 10 2 -7 -1 -18 -6 -23z m102 -26 c2 -4 -4 -9 -15 -9 -11
-1 -17 2 -14 8 7 11 22 12 29 1z m-2527 -61 c22 -16 50 -43 62 -60 19 -26 20
-31 6 -31 -29 0 -52 18 -89 70 -41 57 -36 62 21 21z m180 14 c20 -9 52 -27 72
-42 34 -26 34 -26 11 -35 -31 -11 -56 -2 -115 42 -27 20 -57 39 -65 43 -8 3 2
6 23 6 21 1 54 -6 74 -14z"/>
<path d="M2974 298 c-3 -4 2 -11 10 -14 19 -7 52 3 42 13 -10 10 -46 11 -52 1z"/>
</g>
</svg>
